Coordinates
version=1
nRows=4
nColumns=107
inDegrees=yes

Units are S.I. units (second, meters, Newtons, ...)
If the header above contains a line with 'inDegrees', this indicates whether rotational values are in degrees (yes) or radians (no).

endheader
time	sternoclavicular_r2	sternoclavicular_r3	unrotscap_r3	unrotscap_r2	acromioclavicular_r2	acromioclavicular_r3	acromioclavicular_r1	unrothum_r1	unrothum_r3	unrothum_r2	elv_angle	shoulder_elv	shoulder1_r2	shoulder_rot	elbow_flexion	pro_sup	deviation	flexion	proximal_distal_r1	proximal_distal_r3	cmc_flexion	cmc_abduction	mp_flexion	ip_flexion	mcp2_flexion	mcp2_abduction	pm2_flexion	md2_flexion	mcp3_flexion	mcp3_abduction	pm3_flexion	md3_flexion	mcp4_flexion	mcp4_abduction	pm4_flexion	md4_flexion	mcp5_flexion	mcp5_abduction	pm5_flexion	md5_flexion	bicpt_tx	bicpt_ty	bicpt_tz	bicpt2_tx	bicpt2_ty	bicpt2_tz	ptpt_tx	ptpt_ty	ptpt_tz	FCUpt_tx	FCUpt_ty	FCUpt_tz	EDCpt_tx	EDCpt_ty	EDCpt_tz	APLpt_tx	APLpt_ty	APLpt_tz	FPLpt_tx	FPLpt_ty	FPLpt_tz	FPLpt2_tx	FPLpt2_ty	FPLpt2_tz	PEC1pt2_tx	PEC1pt2_ty	PEC1pt2_tz	PEC1pt3_tx	PEC1pt3_ty	PEC1pt3_tz	PEC2pt2_tx	PEC2pt2_ty	PEC2pt2_tz	PEC2pt3_tx	PEC2pt3_ty	PEC2pt3_tz	PEC3pt2_tx	PEC3pt2_ty	PEC3pt2_tz	PEC3pt3_tx	PEC3pt3_ty	PEC3pt3_tz	DELT2pt2a_tx	DELT2pt2a_ty	DELT2pt2a_tz	DELT2pt2_tx	DELT2pt2_ty	DELT2pt2_tz	LAT1pt2_tx	LAT1pt2_ty	LAT1pt2_tz	LAT1pt3_tx	LAT1pt3_ty	LAT1pt3_tz	LAT2pt2_tx	LAT2pt2_ty	LAT2pt2_tz	LAT2pt3_tx	LAT2pt3_ty	LAT2pt3_tz	LAT3pt2_tx	LAT3pt2_ty	LAT3pt2_tz	LAT3pt3_tx	LAT3pt3_ty	LAT3pt3_tz
      1.23333333	     -0.31036946	      0.13145785	     -0.13145785	      0.31036946	     -0.06284350	      0.50787908	      0.22828815	     -0.22828815	     -0.50787908	      0.06284350	    102.10471393	     73.48272814	     -1.78206344	    -40.94324071	     32.03612189	     85.88595727	      0.36000037	     -0.40886076	      0.38249246	     -0.20443038	     42.62123106	    -15.71998808	     14.05539262	      7.00731485	     93.23670049	     10.34324571	     81.01444382	     77.46590942	     94.44956667	     -1.19766372	     83.21906879	     53.16040606	     87.70692819	    -13.27783880	     99.76491930	     35.78882905	     87.14072506	    -14.11361118	    102.36746837	      5.37862952	      0.00095966	     -0.03127183	     -0.00489144	      0.01425168	     -0.01890277	     -0.00109556	      0.00120400	     -0.06900343	     -0.00696857	      0.01272490	     -0.18224160	      0.00008066	     -0.01030629	      0.00357176	     -0.00075356	      0.00027833	      0.00011133	      0.00055665	      0.00035626	      0.00106878	      0.00060119	     -0.00000612	     -0.00005633	     -0.00006759	      0.00240860	      0.00845052	      0.00587862	     -0.00787899	      0.01902388	     -0.01804411	      0.00240860	      0.00845052	      0.00587862	      0.00053071	      0.01763587	     -0.00926700	      0.00384501	      0.00469923	      0.01571054	      0.00000000	      0.00721796	      0.00000000	     -0.00689922	     -0.03188337	     -0.00594820	      0.02292826	     -0.00114530	     -0.01347585	     -0.00085730	      0.01436997	     -0.00587862	      0.00236778	      0.02073848	     -0.01714598	     -0.00575615	      0.01245125	     -0.00526627	     -0.01200219	      0.02629051	     -0.02943394	     -0.02253472	      0.01392091	     -0.00706251	     -0.01494150	      0.03037289	     -0.03678222
      1.26666667	     -0.30980404	      0.13121837	     -0.13121837	      0.30980404	     -0.06272902	      0.50695384	      0.22787226	     -0.22787226	     -0.50695384	      0.06272902	    102.45301081	     73.34885944	     -1.78814237	    -42.16027462	     31.88669462	     86.14943246	      0.33973967	     -0.46062355	      0.36660017	     -0.23031178	     42.62221751	    -15.46272698	     14.08075844	      7.40823426	     93.42214698	     10.25346166	     80.97226788	     76.67943439	     94.63184405	     -1.28032689	     83.45717438	     52.01113771	     87.84737743	    -13.29392724	    100.06125765	     35.35436972	     87.44938751	    -14.11731940	    102.41722176	      5.40053520	      0.00095471	     -0.03125470	     -0.00488868	      0.01422450	     -0.01886218	     -0.00105048	      0.00118453	     -0.06901602	     -0.00698980	      0.01275516	     -0.18223268	      0.00008790	     -0.01033791	      0.00358621	     -0.00076201	      0.00029363	      0.00011745	      0.00058726	      0.00037585	      0.00112754	      0.00063424	     -0.00000612	     -0.00005631	     -0.00006757	      0.00240421	      0.00843513	      0.00586791	     -0.00786463	      0.01898922	     -0.01801124	      0.00240421	      0.00843513	      0.00586791	      0.00052974	      0.01760374	     -0.00925011	      0.00383980	      0.00469067	      0.01569726	      0.00000000	      0.00719153	      0.00000000	     -0.00688665	     -0.03182528	     -0.00592624	      0.02327972	     -0.00118995	     -0.01420981	     -0.00085574	      0.01434379	     -0.00586791	      0.00236347	      0.02070070	     -0.01711475	     -0.00574567	      0.01242857	     -0.00525667	     -0.01198032	      0.02624261	     -0.02938032	     -0.02249367	      0.01389555	     -0.00704965	     -0.01491428	      0.03031755	     -0.03671521
      1.30000000	     -0.30979841	      0.13121598	     -0.13121598	      0.30979841	     -0.06272788	      0.50694463	      0.22786812	     -0.22786812	     -0.50694463	      0.06272788	    102.46021185	     73.34752664	     -1.78826805	    -42.15815396	     31.89464504	     86.14796036	      0.33975480	     -0.46062699	      0.36661211	     -0.23031349	     42.62334446	    -15.46345365	     14.08144143	      7.40838861	     93.42274648	     10.25363830	     80.97249066	     76.67970584	     94.63254318	     -1.28037720	     83.45722577	     52.01123297	     87.84759650	    -13.29392320	    100.06109129	     35.35435254	     87.44942411	    -14.11736166	    102.41713330	      5.40047231	      0.00095498	     -0.03125561	     -0.00488882	      0.01422459	     -0.01886434	     -0.00105069	      0.00118464	     -0.06901595	     -0.00698968	      0.01275500	     -0.18223272	      0.00008788	     -0.01033773	      0.00358614	     -0.00076198	      0.00029360	      0.00011744	      0.00058720	      0.00037580	      0.00112741	      0.00063417	     -0.00000611	     -0.00005628	     -0.00006753	      0.00240417	      0.00843497	      0.00586781	     -0.00786449	      0.01898888	     -0.01801091	      0.00240417	      0.00843497	      0.00586781	      0.00052973	      0.01760342	     -0.00924995	      0.00383975	      0.00469058	      0.01569713	      0.00000000	      0.00719126	      0.00000000	     -0.00688652	     -0.03182470	     -0.00592602	      0.02327912	     -0.00118987	     -0.01420852	     -0.00085572	      0.01434353	     -0.00586781	      0.00236342	      0.02070032	     -0.01711444	     -0.00574556	      0.01242834	     -0.00525658	     -0.01198011	      0.02624214	     -0.02937978	     -0.02249326	      0.01389529	     -0.00704952	     -0.01491401	      0.03031700	     -0.03671454
      1.33333333	     -0.31001970	      0.13130971	     -0.13130971	      0.31001970	     -0.06277268	      0.50730674	      0.22803089	     -0.22803089	     -0.50730674	      0.06277268	    102.10820652	     73.39991995	     -1.78212440	    -41.12757521	     32.24543934	     85.82987614	      0.35842492	     -0.40544846	      0.38128085	     -0.20272423	     42.70278405	    -15.75845299	     14.74213735	      7.50381174	     93.18213582	     10.34702511	     81.25990416	     77.89732686	     94.40048459	     -1.24614296	     83.56164149	     52.79022032	     87.34285510	    -13.24444755	    100.54665057	     35.36605240	     86.69714601	    -14.11052189	    102.95140467	      5.36597991	      0.00096658	     -0.03129582	     -0.00489530	      0.01425746	     -0.01895963	     -0.00110515	      0.00120814	     -0.06900075	     -0.00696406	      0.01271846	     -0.18224349	      0.00007912	     -0.01029956	      0.00356868	     -0.00075176	      0.00027716	      0.00011087	      0.00055433	      0.00035477	      0.00106431	      0.00059867	     -0.00000594	     -0.00005450	     -0.00006540	      0.00240589	      0.00844100	      0.00587200	     -0.00787011	      0.01900244	     -0.01802377	      0.00240589	      0.00844100	      0.00587200	      0.00053011	      0.01761600	     -0.00925655	      0.00384179	      0.00469393	      0.01570233	      0.00000000	      0.00720160	      0.00000000	     -0.00689144	     -0.03184744	     -0.00593461	      0.02298276	     -0.00115205	     -0.01358626	     -0.00085633	      0.01435377	     -0.00587200	      0.00236511	      0.02071511	     -0.01712666	     -0.00574967	      0.01243722	     -0.00526033	     -0.01198866	      0.02626088	     -0.02940077	     -0.02250933	      0.01390522	     -0.00705455	     -0.01492466	      0.03033866	     -0.03674077
